/* XPM */
static char *_641a6ac6d7b43cfd838e5ec55b99e9f[] = {
/* columns rows colors chars-per-pixel */
"20 22 45 1 ",
"  c #F3AF9A",
". c #F3AE9E",
"X c #F5AE9C",
"o c #F6AF9D",
"O c #F5AD9E",
"+ c #F4AF9F",
"@ c #F5B399",
"# c #F5B19A",
"$ c #F4B09B",
"% c #F4B29A",
"& c #F5B39B",
"* c #F5B59A",
"= c #F4B49B",
"- c #F6B49A",
"; c #F7B59B",
": c #F6B69B",
"> c #F3B29E",
", c #F5B19C",
"< c #F4B09D",
"1 c #F4B29C",
"2 c #F4B39D",
"3 c #F5B39D",
"4 c #F4B19E",
"5 c #F5B19E",
"6 c #F5B29F",
"7 c #F4B39F",
"8 c #F5B59C",
"9 c #F6B49C",
"0 c #F7B59D",
"q c #F6B69D",
"w c #F5B49E",
"e c #F6B49E",
"r c #F6B59F",
"t c #F7B79E",
"y c #F8B89F",
"u c #F4AFA0",
"i c #F5B0A0",
"p c #F4B1A0",
"a c #F5B0A1",
"s c #F5B2A1",
"d c #F6B3A0",
"f c #F6B1A2",
"g c #F5B4A0",
"h c #F6B5A1",
"j c #F7B6A0",
/* pixels */
"&&&&@:&-:-9tttttttyy",
"&&&&&&@-:-:t9ttttttt",
"999900:::::t8tt:hhhh",
"999900::::t9t8t9tth9",
"9&&&&9988t8t8t8hhh8g",
"%&%&&999t8t9t8h98hht",
"%%%%&&9988888gh9hhhh",
"%%%%&&&&8888g8thhhhh",
"%%%%%%%%%=2999hghhhh",
"%%%%%%%%%%>hh>gghghh",
"&XX@%%>&>8>92hshgggg",
"X&&X%%&&%>29dss2gggg",
"&&+&X&&X&+udssddgggg",
"&X&X&++&&2222dd2gggg",
"&X&+X& &X&os+2uuguuh",
"X&X&&%X XX2+2+2s8u8s",
"& X&+X2+>X.ussuuguug",
"%X&X2+&XX+2us+uuuguu",
".X+ooo+X+++.+ussu2us",
"2+X&ooXX+++.++2ussss",
"XXXXXX+OOO+X++++ufss",
"XXXXXXOOOOO+++++uuus"
};
